<?xml version="1.0" encoding="utf-8"?>
<!-- Generator: Adobe Illustrator 23.0.6, SVG Export Plug-In . SVG Version: 6.00 Build 0)  -->
<svg version="1.1" id="レイヤー_1" xmlns="http://www.w3.org/2000/svg" xmlns:xlink="http://www.w3.org/1999/xlink" x="0px"
	 y="0px" viewBox="0 0 128 128" style="enable-background:new 0 0 128 128;" xml:space="preserve">
<style type="text/css">
	.st0{clip-path:url(#SVGID_2_);}
	.st1{clip-path:url(#SVGID_4_);fill:#E5258C;}
	.st2{clip-path:url(#SVGID_4_);fill:#0D47A1;}
	.st3{clip-path:url(#SVGID_4_);fill:#8BC34A;}
	.st4{clip-path:url(#SVGID_4_);fill:#2196F3;}
	.st5{fill-rule:evenodd;clip-rule:evenodd;fill:#9B5C8F;}
	.st6{fill:#FFFFFF;}
</style>
<g>
	<g>
		<defs>
			<rect id="SVGID_1_" x="-14" y="-5" width="157.2" height="105.2"/>
		</defs>
		<clipPath id="SVGID_2_">
			<use xlink:href="#SVGID_1_"  style="overflow:visible;"/>
		</clipPath>
		<g class="st0">
			<defs>
				<rect id="SVGID_3_" x="-14" y="-5" width="157.2" height="105.2"/>
			</defs>
			<clipPath id="SVGID_4_">
				<use xlink:href="#SVGID_3_"  style="overflow:visible;"/>
			</clipPath>
			<path class="st1" d="M79.9,49.6c-1.5,0-2.7,0.6-3.5,1.8c-0.9,1.1-1.3,2.8-1.3,4.8c0,2.3,0.4,4.1,1.3,5.3c0.9,1.2,2.1,1.8,3.7,1.8
				c1.6,0,2.8-0.6,3.6-1.8c0.8-1.2,1.2-3,1.2-5.3c0-2.1-0.4-3.7-1.3-4.9C82.7,50.2,81.5,49.6,79.9,49.6"/>
			<path class="st2" d="M15.7,73.4c0,2.1-1.2,2.9-2.9,2.9H9.9V54.9c0-4,2.8-10.4,11.2-10.4c1.4,0,10.4,0,10.4,11.8
				c0,11.4-6.5,12.1-9.2,12.1c-3.6,0-5.9-2.2-6.6-3.5V73.4z M25.6,56.5c0-2.2-0.4-4-1.3-5.2c-0.9-1.2-2.1-1.8-3.7-1.8
				c-1.6,0-2.8,0.6-3.6,1.8c-0.8,1.1-1.2,2.8-1.2,5.2c0,2.2,0.4,3.8,1.3,4.9c0.9,1.2,2.1,1.8,3.7,1.8c1.5,0,2.7-0.6,3.5-1.8
				C25.1,60.2,25.6,58.6,25.6,56.5"/>
			<path class="st3" d="M95.8,27.1l-0.6-0.3l-0.6-0.3l-7.1-3.2c-0.6-0.3-1.3-0.4-1.9-0.4c-1.6,0-3.1,0.8-4,2.2l0.4,0.8l2.4,5.6h9.9
				h2.2v2.2v5l2.1-4.8l0.3-0.6l0.3-0.6l1.6-3.6L95.8,27.1z"/>
			<path class="st4" d="M65.3,31.6h10.9h1.2h1.2h2.1h1.1l-1.6-3.7l-0.4-1l-0.2-0.4l-0.3-0.6l-0.3-0.8L79,24.8l-2.5-6l-8.2,3.5
				l-1,0.4l-1,0.4l-11.8,5c-4,1.7-5.9,6.3-4.2,10.3l3.3,7.8v-3.1C53.5,36.9,58.8,31.6,65.3,31.6"/>
			<path class="st2" d="M48.3,67c-4.2,2.1-14.9,2.7-14.9-6c0-2.4,0.7-4.1,2.1-5.2c4.1-3.2,11.6-2.1,11.6-4.7c0-0.9-0.5-2.1-3.8-2.1
				c-2.7,0-3.2,1-3.5,1.6h-5.8c0.2-1.8,1.8-6.4,9.1-6.4c8.9,0,9.7,4.4,9.7,6.5v7.8C52.9,64.2,50.1,66.2,48.3,67 M47.3,56.3
				c-4.5,2.1-8.2,1.4-8.2,4.6c0,0.9,0.3,2.8,3,2.8c1.6,0,5.2-0.3,5.2-5.2V56.3z"/>
			<path class="st1" d="M85.3,33.9h-1.2h-0.6h-0.6h-0.7h-1.4h-3.1h-1.2h-1.2h-10c-5.2,0-9.5,4.3-9.5,9.5v8.3v2.8v2.8v15h29
				c5.2,0,9.5-4.3,9.5-9.5V46.5v-1.4v-0.7v-0.9V43v-1.4v-7.8H85.3z M65.1,67.9h-6v-20c0-0.8,0.3-1.5,0.9-2.1
				c0.6-0.6,1.3-0.9,2.1-0.9h3.1V67.9z M65.1,42.9h-6v-1.8c0-0.8,0.3-1.5,0.9-2.1c0.6-0.6,1.3-0.9,2.1-0.9h3.1V42.9z M90.8,57.9
				c0,4.1-1.2,6.8-3.5,8.3c-2.4,1.4-4.9,2.2-7.7,2.2c-1.5,0-3-0.2-4.4-0.7c-1.4-0.5-2.6-1.3-3.5-2.4c-1.7-2.1-2.5-5-2.5-8.7
				c0-3.6,0.8-6.5,2.5-8.7c1.7-2.2,3.9-3.4,6.6-3.4c1.4,0,2.7,0.3,3.8,0.9c1.2,0.7,2.1,1.6,2.8,2.7v-9.8h2.9c0.8,0,1.5,0.3,2.1,0.9
				c0.6,0.6,0.9,1.3,0.9,2V57.9z"/>
			<path class="st2" d="M100.4,76v-4.7h1.6c1.2,0,2.1-0.3,2.7-0.8c0.7-0.5,0.8-1.4,0.4-2.6l-8-22.9h6.6l4.7,16.2l4.1-14.2
				c0.3-1.4,1.3-2.1,2.8-2.1h4.1l-8.8,26.1c-0.7,1.9-1.6,3.2-2.6,4.1C105.7,76.9,100.6,76,100.4,76"/>
		</g>
	</g>
</g>
<g>
	<path class="st5" d="M9.8,94.5h31.9c2,0,3.6,1.6,3.6,3.6v12.2c0,2-1.6,3.6-3.6,3.6H30.3l1.6,3.8l-6.9-3.8H9.8c-2,0-3.6-1.6-3.6-3.6
		V98.1C6.2,96.1,7.8,94.5,9.8,94.5z"/>
	<path class="st6" d="M8.1,97.8c0.2-0.3,0.6-0.5,1-0.5c0.8-0.1,1.3,0.3,1.4,1.2c0.5,3.3,1,6.2,1.6,8.5l3.5-6.7
		c0.3-0.6,0.7-0.9,1.2-1c0.7,0,1.1,0.4,1.3,1.3c0.4,2.1,0.9,3.9,1.5,5.5c0.4-4.1,1.1-7,2.1-8.8c0.2-0.4,0.6-0.7,1.1-0.7
		c0.4,0,0.7,0.1,1,0.3c0.3,0.2,0.5,0.5,0.5,0.9c0,0.3,0,0.5-0.2,0.8c-0.6,1.2-1.1,3.1-1.6,5.8c-0.4,2.6-0.5,4.6-0.4,6.1
		c0,0.4,0,0.8-0.2,1.1c-0.2,0.4-0.5,0.5-0.8,0.6c-0.4,0-0.8-0.2-1.3-0.6c-1.5-1.5-2.7-3.8-3.5-6.8c-1,2-1.8,3.6-2.3,4.6
		c-0.9,1.8-1.7,2.7-2.4,2.8c-0.4,0-0.8-0.3-1.1-1.1c-0.8-2.1-1.7-6.1-2.6-12.1C7.8,98.4,7.9,98.1,8.1,97.8z"/>
	<path class="st6" d="M42.5,100.3c-0.6-1-1.4-1.6-2.6-1.9c-0.3-0.1-0.6-0.1-0.9-0.1c-1.5,0-2.8,0.8-3.8,2.4
		c-0.8,1.4-1.2,2.9-1.2,4.5c0,1.2,0.3,2.3,0.8,3.2c0.6,1,1.4,1.6,2.6,1.9c0.3,0.1,0.6,0.1,0.9,0.1c1.6,0,2.8-0.8,3.8-2.4
		c0.8-1.4,1.2-2.9,1.2-4.5C43.3,102.2,43.1,101.2,42.5,100.3L42.5,100.3z M40.5,104.7c-0.2,1.1-0.6,1.8-1.2,2.4
		c-0.5,0.4-0.9,0.6-1.3,0.5c-0.4-0.1-0.7-0.4-0.9-1c-0.2-0.5-0.3-1-0.3-1.5c0-0.4,0-0.8,0.1-1.2c0.1-0.7,0.4-1.3,0.8-1.9
		c0.5-0.8,1.1-1.1,1.7-1c0.4,0.1,0.7,0.4,0.9,1c0.2,0.5,0.3,1,0.3,1.5C40.6,104,40.6,104.4,40.5,104.7L40.5,104.7z"/>
	<path class="st6" d="M32.5,100.3c-0.6-1-1.4-1.6-2.6-1.9c-0.3-0.1-0.6-0.1-0.9-0.1c-1.5,0-2.8,0.8-3.8,2.4
		c-0.8,1.4-1.2,2.9-1.2,4.5c0,1.2,0.3,2.3,0.8,3.2c0.6,1,1.4,1.6,2.6,1.9c0.3,0.1,0.6,0.1,0.9,0.1c1.6,0,2.8-0.8,3.8-2.4
		c0.8-1.4,1.2-2.9,1.2-4.5C33.3,102.2,33,101.2,32.5,100.3L32.5,100.3z M30.5,104.7c-0.2,1.1-0.6,1.8-1.2,2.4
		c-0.5,0.4-0.9,0.6-1.3,0.5c-0.4-0.1-0.7-0.4-0.9-1c-0.2-0.5-0.3-1-0.3-1.5c0-0.4,0-0.8,0.1-1.2c0.1-0.7,0.4-1.3,0.8-1.9
		c0.5-0.8,1.1-1.1,1.7-1c0.4,0.1,0.7,0.4,0.9,1c0.2,0.5,0.3,1,0.3,1.5C30.6,104,30.6,104.4,30.5,104.7L30.5,104.7z"/>
	<g>
		<g>
			<path d="M49.4,100.2c-1.1,1.1-1.6,2.4-1.6,4c0,1.7,0.5,3.2,1.6,4.2c1.1,1.1,2.4,1.6,4.1,1.6c0.5,0,1.1-0.1,1.7-0.3v-2.6
				c-0.6,0.2-1,0.2-1.5,0.2c-0.8,0-1.5-0.3-2-0.8c-0.5-0.6-0.8-1.3-0.8-2.3c0-0.9,0.3-1.7,0.8-2.2c0.5-0.6,1.1-0.9,1.9-0.9
				c0.5,0,1,0.1,1.6,0.2v-2.6c-0.5-0.1-1.1-0.2-1.7-0.2C51.8,98.6,50.5,99.1,49.4,100.2z M60.5,98.6c-1.5,0-2.6,0.5-3.5,1.5
				c-0.8,1-1.2,2.4-1.2,4.1c0,1.9,0.4,3.4,1.2,4.4c0.8,1,2,1.5,3.6,1.5c1.5,0,2.7-0.5,3.5-1.5c0.8-1,1.2-2.4,1.2-4.3
				s-0.4-3.2-1.2-4.2C63.3,99.1,62.1,98.6,60.5,98.6z M61.7,106.9c-0.3,0.4-0.7,0.7-1.3,0.7c-0.5,0-0.9-0.2-1.2-0.7
				c-0.3-0.4-0.4-1.3-0.4-2.7c0-2.1,0.5-3.1,1.6-3.1c1.1,0,1.7,1.1,1.7,3.2C62.2,105.5,62,106.4,61.7,106.9z M73.3,98.9l-0.6,2.4
				c-0.1,0.6-0.3,1.3-0.4,1.9l-0.3,1.7c-0.3-1.7-0.7-3.7-1.2-6.1H67l-1.4,10.9h2.8l0.8-7.5l1.9,7.5h2l1.8-7.5l0.8,7.5h2.9l-1.5-10.9
				H73.3L73.3,98.9z M86.6,98.9l-0.6,2.4c-0.1,0.6-0.3,1.3-0.4,1.9l-0.3,1.7c-0.3-1.7-0.7-3.7-1.2-6.1h-3.7l-1.4,10.9h2.8l0.8-7.5
				l1.9,7.5h2l1.8-7.5l0.8,7.5h2.9l-1.5-10.9H86.6z M95.6,105.5h2.6v-2.3h-2.6v-2h3v-2.3h-6v10.9h6v-2.3h-3V105.5z M106.9,103.7
				c0.3-0.5,0.5-1,0.5-1.5c0-1-0.4-1.8-1.2-2.4c-0.8-0.6-1.9-0.9-3.3-0.9h-3.4v10.9h2.9v-5h0l2.4,5h3.1l-2.4-4.9
				C106.2,104.6,106.6,104.2,106.9,103.7z M102.4,103.6V101c0.7,0,1.2,0.1,1.5,0.4c0.3,0.2,0.4,0.6,0.4,1.1
				C104.4,103.2,103.7,103.5,102.4,103.6z M109.1,100.2c-1.1,1.1-1.6,2.4-1.6,4c0,1.7,0.5,3.2,1.6,4.2c1.1,1.1,2.4,1.6,4.1,1.6
				c0.5,0,1.1-0.1,1.7-0.3v-2.6c-0.6,0.2-1,0.2-1.5,0.2c-0.8,0-1.5-0.3-2-0.8c-0.5-0.6-0.8-1.3-0.8-2.3c0-0.9,0.3-1.7,0.8-2.2
				c0.5-0.6,1.1-0.9,1.9-0.9c0.5,0,1,0.1,1.6,0.2v-2.6c-0.5-0.1-1.1-0.2-1.7-0.2C111.6,98.6,110.2,99.1,109.1,100.2z M118.7,107.4
				v-2h2.6v-2.3h-2.6v-2h3v-2.3h-6v10.9h6v-2.3L118.7,107.4L118.7,107.4z"/>
		</g>
	</g>
</g>
<g>
</g>
<g>
</g>
<g>
</g>
<g>
</g>
<g>
</g>
<g>
</g>
<g>
</g>
<g>
</g>
<g>
</g>
<g>
</g>
<g>
</g>
<g>
</g>
<g>
</g>
<g>
</g>
<g>
</g>
</svg>
